<?xml version="1.0" encoding="utf-8"?><svg version="1.1" xmlns="http://www.w3.org/2000/svg" xmlns:xlink="http://www.w3.org/1999/xlink" x="0px" y="0px" viewBox="0 0 216 216" style="enable-background:new 0 0 216 216;" xml:space="preserve"><style type="text/css">.st0{fill:#139EDA;}.st1{fill:#68C2E5;}</style><g><path class="st0" d="M149.9,8.5v96.4c-15.9,5.7-30.1,22.3-36.9,31.5V55.7h-4.3V46C108.7,46,127.6,16.4,149.9,8.5z"/><path class="st1" d="M108.7,46v9.7H67.5V8.5C89.8,16.4,108.7,46,108.7,46z"/><path class="st0" d="M66.1,207.5v-96.4c15.8-5.7,29.9-22.3,36.7-31.5v80.5h4.3v9.7C107.1,170,88.2,199.6,66.1,207.5z"/><path class="st1" d="M107.1,170v-9.7h41v47.3C125.9,199.6,107.1,170,107.1,170z"/><path class="st1" d="M169.4,108C169.4,108,169.4,108,169.4,108l-9.1,0c0,0,0,0,0,0V66.1H207C199.1,88.7,169.4,108,169.4,108z"/><path class="st0" d="M207,149.9h-88.7c4.2-20.5,40.9-41.3,42.1-41.9h9.1C170.3,108.6,199.2,127.6,207,149.9z"/><path class="st1" d="M46.6,108C46.6,108,46.6,108,46.6,108l9.1,0c0,0,0,0,0,0v41.9H9C16.9,127.3,46.6,108,46.6,108z"/><path class="st0" d="M9,66.1h88.7c-4.2,20.5-40.9,41.3-42.1,41.9h-9.1C45.7,107.4,16.8,88.4,9,66.1z"/></g></svg>
